<mxfile host="app.diagrams.net" modified="2022-02-04T11:41:21.048Z" agent="5.0 (Windows NT 10.0; Win64; x64) AppleWebKit/537.36 (KHTML, like Gecko) Chrome/97.0.4692.99 Safari/537.36 OPR/83.0.4254.27 (Edition Yx 05)" etag="YPcxo3iDPsU6Q-6DU626" version="16.5.3" type="github">
  <diagram name="Page-1" id="822b0af5-4adb-64df-f703-e8dfc1f81529">
    <mxGraphModel dx="1455" dy="804" grid="1" gridSize="10" guides="1" tooltips="1" connect="1" arrows="1" fold="1" page="1" pageScale="1" pageWidth="1100" pageHeight="850" background="none" math="0" shadow="0">
      <root>
        <mxCell id="0" />
        <mxCell id="1" parent="0" />
        <mxCell id="7d933b09d9755ecc-14" value="АгроИнвест" style="triangle;whiteSpace=wrap;html=1;rounded=0;shadow=0;comic=0;strokeWidth=1;fontFamily=Verdana;direction=north;labelPosition=center;verticalLabelPosition=bottom;align=center;verticalAlign=top;" parent="1" vertex="1">
          <mxGeometry x="1080" y="200" width="530" height="537" as="geometry" />
        </mxCell>
        <mxCell id="7d933b09d9755ecc-12" value="АКСУАГРО" style="triangle;whiteSpace=wrap;html=1;rounded=0;shadow=0;comic=0;strokeWidth=1;fontFamily=Verdana;direction=north;labelPosition=center;verticalLabelPosition=bottom;align=center;verticalAlign=top;" parent="1" vertex="1">
          <mxGeometry x="400" y="92" width="286" height="340" as="geometry" />
        </mxCell>
        <mxCell id="7d933b09d9755ecc-13" value="" style="ellipse;whiteSpace=wrap;html=1;rounded=0;shadow=0;comic=0;strokeWidth=1;fontFamily=Verdana;" parent="1" vertex="1">
          <mxGeometry x="433.5" y="323" width="142" height="94" as="geometry" />
        </mxCell>
        <mxCell id="7d933b09d9755ecc-5" value="" style="verticalLabelPosition=bottom;aspect=fixed;html=1;verticalAlign=top;strokeColor=none;shape=mxgraph.citrix.file_server;rounded=0;shadow=0;comic=0;fontFamily=Verdana;" parent="1" vertex="1">
          <mxGeometry x="1219" y="533" width="71" height="97" as="geometry" />
        </mxCell>
        <mxCell id="7d933b09d9755ecc-6" value="1с&lt;br&gt;" style="verticalLabelPosition=bottom;aspect=fixed;html=1;verticalAlign=top;strokeColor=none;shape=mxgraph.citrix.users;rounded=0;shadow=0;comic=0;fontFamily=Verdana;" parent="1" vertex="1">
          <mxGeometry x="473" y="345" width="64.5" height="55" as="geometry" />
        </mxCell>
        <mxCell id="7d933b09d9755ecc-9" value="" style="verticalLabelPosition=bottom;aspect=fixed;html=1;verticalAlign=top;strokeColor=none;shape=mxgraph.citrix.tower_server;rounded=0;shadow=0;comic=0;fontFamily=Verdana;" parent="1" vertex="1">
          <mxGeometry x="510.5" y="219.5" width="65" height="85" as="geometry" />
        </mxCell>
        <mxCell id="7d933b09d9755ecc-18" value="нур сахар завод&lt;br&gt;" style="triangle;whiteSpace=wrap;html=1;rounded=0;shadow=0;comic=0;strokeWidth=1;fontFamily=Verdana;direction=north;labelPosition=center;verticalLabelPosition=bottom;align=center;verticalAlign=top;" parent="1" vertex="1">
          <mxGeometry x="1580" y="76" width="286" height="340" as="geometry" />
        </mxCell>
        <mxCell id="7d933b09d9755ecc-19" value="" style="ellipse;whiteSpace=wrap;html=1;rounded=0;shadow=0;comic=0;strokeWidth=1;fontFamily=Verdana;" parent="1" vertex="1">
          <mxGeometry x="1614" y="292.5" width="142" height="90" as="geometry" />
        </mxCell>
        <mxCell id="7d933b09d9755ecc-20" value="Users" style="verticalLabelPosition=bottom;aspect=fixed;html=1;verticalAlign=top;strokeColor=none;shape=mxgraph.citrix.users;rounded=0;shadow=0;comic=0;fontFamily=Verdana;" parent="1" vertex="1">
          <mxGeometry x="1640" y="310" width="64.5" height="55" as="geometry" />
        </mxCell>
        <mxCell id="7d933b09d9755ecc-21" value="" style="verticalLabelPosition=bottom;aspect=fixed;html=1;verticalAlign=top;strokeColor=none;shape=mxgraph.citrix.tower_server;rounded=0;shadow=0;comic=0;fontFamily=Verdana;" parent="1" vertex="1">
          <mxGeometry x="1691" y="177" width="65" height="85" as="geometry" />
        </mxCell>
        <mxCell id="7d933b09d9755ecc-31" value="Нур элевтор" style="triangle;whiteSpace=wrap;html=1;rounded=0;shadow=0;comic=0;strokeWidth=1;fontFamily=Verdana;direction=north;labelPosition=center;verticalLabelPosition=bottom;align=center;verticalAlign=top;" parent="1" vertex="1">
          <mxGeometry x="471" y="489.5" width="286" height="340" as="geometry" />
        </mxCell>
        <mxCell id="7d933b09d9755ecc-32" value="" style="ellipse;whiteSpace=wrap;html=1;rounded=0;shadow=0;comic=0;strokeWidth=1;fontFamily=Verdana;" parent="1" vertex="1">
          <mxGeometry x="556" y="711" width="142" height="89" as="geometry" />
        </mxCell>
        <mxCell id="7d933b09d9755ecc-33" value="Users" style="verticalLabelPosition=bottom;aspect=fixed;html=1;verticalAlign=top;strokeColor=none;shape=mxgraph.citrix.users;rounded=0;shadow=0;comic=0;fontFamily=Verdana;" parent="1" vertex="1">
          <mxGeometry x="594" y="724" width="64.5" height="55" as="geometry" />
        </mxCell>
        <mxCell id="7d933b09d9755ecc-34" value="" style="verticalLabelPosition=bottom;aspect=fixed;html=1;verticalAlign=top;strokeColor=none;shape=mxgraph.citrix.tower_server;rounded=0;shadow=0;comic=0;fontFamily=Verdana;" parent="1" vertex="1">
          <mxGeometry x="575.5" y="589" width="65" height="85" as="geometry" />
        </mxCell>
        <mxCell id="FzbhmMPE28zbG0T219BD-1" value="RDP &lt;br&gt;89.232.91.190:7189" style="text;html=1;strokeColor=none;fillColor=none;align=center;verticalAlign=middle;whiteSpace=wrap;rounded=0;" vertex="1" parent="1">
          <mxGeometry x="550" y="395" width="140" height="30" as="geometry" />
        </mxCell>
        <mxCell id="FzbhmMPE28zbG0T219BD-2" value="Агрофирма южная" style="triangle;whiteSpace=wrap;html=1;rounded=0;shadow=0;comic=0;strokeWidth=1;fontFamily=Verdana;direction=north;labelPosition=center;verticalLabelPosition=bottom;align=center;verticalAlign=top;" vertex="1" parent="1">
          <mxGeometry x="698" y="92" width="286" height="340" as="geometry" />
        </mxCell>
        <mxCell id="FzbhmMPE28zbG0T219BD-3" value="" style="ellipse;whiteSpace=wrap;html=1;rounded=0;shadow=0;comic=0;strokeWidth=1;fontFamily=Verdana;" vertex="1" parent="1">
          <mxGeometry x="731.5" y="323" width="142" height="94" as="geometry" />
        </mxCell>
        <mxCell id="FzbhmMPE28zbG0T219BD-4" value="1с&lt;br&gt;" style="verticalLabelPosition=bottom;aspect=fixed;html=1;verticalAlign=top;strokeColor=none;shape=mxgraph.citrix.users;rounded=0;shadow=0;comic=0;fontFamily=Verdana;" vertex="1" parent="1">
          <mxGeometry x="771" y="345" width="64.5" height="55" as="geometry" />
        </mxCell>
        <mxCell id="FzbhmMPE28zbG0T219BD-5" value="" style="verticalLabelPosition=bottom;aspect=fixed;html=1;verticalAlign=top;strokeColor=none;shape=mxgraph.citrix.tower_server;rounded=0;shadow=0;comic=0;fontFamily=Verdana;" vertex="1" parent="1">
          <mxGeometry x="808.5" y="219.5" width="65" height="85" as="geometry" />
        </mxCell>
        <mxCell id="FzbhmMPE28zbG0T219BD-6" value="RDP &lt;br&gt;89.232.91.114:7189" style="text;html=1;strokeColor=none;fillColor=none;align=center;verticalAlign=middle;whiteSpace=wrap;rounded=0;" vertex="1" parent="1">
          <mxGeometry x="848" y="395" width="140" height="30" as="geometry" />
        </mxCell>
        <mxCell id="FzbhmMPE28zbG0T219BD-7" value="КФХ Сулейманов А.И.&lt;br&gt;&lt;br&gt;" style="triangle;whiteSpace=wrap;html=1;rounded=0;shadow=0;comic=0;strokeWidth=1;fontFamily=Verdana;direction=north;labelPosition=center;verticalLabelPosition=bottom;align=center;verticalAlign=top;" vertex="1" parent="1">
          <mxGeometry x="100" y="92" width="286" height="340" as="geometry" />
        </mxCell>
        <mxCell id="FzbhmMPE28zbG0T219BD-8" value="" style="ellipse;whiteSpace=wrap;html=1;rounded=0;shadow=0;comic=0;strokeWidth=1;fontFamily=Verdana;" vertex="1" parent="1">
          <mxGeometry x="133.5" y="323" width="142" height="94" as="geometry" />
        </mxCell>
        <mxCell id="FzbhmMPE28zbG0T219BD-9" value="1с&lt;br&gt;" style="verticalLabelPosition=bottom;aspect=fixed;html=1;verticalAlign=top;strokeColor=none;shape=mxgraph.citrix.users;rounded=0;shadow=0;comic=0;fontFamily=Verdana;" vertex="1" parent="1">
          <mxGeometry x="172.25" y="323" width="64.5" height="55" as="geometry" />
        </mxCell>
        <mxCell id="FzbhmMPE28zbG0T219BD-10" value="" style="verticalLabelPosition=bottom;aspect=fixed;html=1;verticalAlign=top;strokeColor=none;shape=mxgraph.citrix.tower_server;rounded=0;shadow=0;comic=0;fontFamily=Verdana;" vertex="1" parent="1">
          <mxGeometry x="210.5" y="219.5" width="65" height="85" as="geometry" />
        </mxCell>
        <mxCell id="FzbhmMPE28zbG0T219BD-27" value="" style="edgeStyle=orthogonalEdgeStyle;rounded=0;orthogonalLoop=1;jettySize=auto;html=1;" edge="1" parent="1" source="FzbhmMPE28zbG0T219BD-11" target="FzbhmMPE28zbG0T219BD-9">
          <mxGeometry relative="1" as="geometry" />
        </mxCell>
        <mxCell id="FzbhmMPE28zbG0T219BD-11" value="RDP &lt;br&gt;89.232.91.122:7189" style="text;html=1;strokeColor=none;fillColor=none;align=center;verticalAlign=middle;whiteSpace=wrap;rounded=0;" vertex="1" parent="1">
          <mxGeometry x="250" y="395" width="140" height="30" as="geometry" />
        </mxCell>
        <mxCell id="FzbhmMPE28zbG0T219BD-12" value="гипервизор" style="swimlane;startSize=20;horizontal=1;childLayout=treeLayout;horizontalTree=0;resizable=0;containerType=tree;" vertex="1" parent="1">
          <mxGeometry x="1320" y="533" width="290" height="220" as="geometry" />
        </mxCell>
        <mxCell id="FzbhmMPE28zbG0T219BD-13" value="VMware EXI&lt;br&gt;192.168.0.58" style="whiteSpace=wrap;html=1;" vertex="1" parent="FzbhmMPE28zbG0T219BD-12">
          <mxGeometry x="95" y="40" width="100" height="40" as="geometry" />
        </mxCell>
        <mxCell id="FzbhmMPE28zbG0T219BD-14" value="KASP 192.168.0.192&lt;br&gt;сервер касперского endpoint&lt;br&gt;" style="whiteSpace=wrap;html=1;" vertex="1" parent="FzbhmMPE28zbG0T219BD-12">
          <mxGeometry x="20" y="130" width="110" height="70" as="geometry" />
        </mxCell>
        <mxCell id="FzbhmMPE28zbG0T219BD-15" value="" style="edgeStyle=elbowEdgeStyle;elbow=vertical;html=1;rounded=0;" edge="1" parent="FzbhmMPE28zbG0T219BD-12" source="FzbhmMPE28zbG0T219BD-13" target="FzbhmMPE28zbG0T219BD-14">
          <mxGeometry relative="1" as="geometry" />
        </mxCell>
        <mxCell id="FzbhmMPE28zbG0T219BD-16" value="КЦ Южная&lt;br&gt;192.168.0.191&lt;br&gt;база 1с БУХ, ЗУП" style="whiteSpace=wrap;html=1;" vertex="1" parent="FzbhmMPE28zbG0T219BD-12">
          <mxGeometry x="170" y="130" width="100" height="60" as="geometry" />
        </mxCell>
        <mxCell id="FzbhmMPE28zbG0T219BD-17" value="" style="edgeStyle=elbowEdgeStyle;elbow=vertical;html=1;rounded=0;" edge="1" parent="FzbhmMPE28zbG0T219BD-12" source="FzbhmMPE28zbG0T219BD-13" target="FzbhmMPE28zbG0T219BD-16">
          <mxGeometry relative="1" as="geometry" />
        </mxCell>
        <mxCell id="FzbhmMPE28zbG0T219BD-23" style="edgeStyle=orthogonalEdgeStyle;rounded=0;orthogonalLoop=1;jettySize=auto;html=1;exitX=1;exitY=0.25;exitDx=0;exitDy=0;entryX=1;entryY=0;entryDx=0;entryDy=0;" edge="1" parent="FzbhmMPE28zbG0T219BD-12" source="FzbhmMPE28zbG0T219BD-14" target="FzbhmMPE28zbG0T219BD-14">
          <mxGeometry relative="1" as="geometry" />
        </mxCell>
        <mxCell id="FzbhmMPE28zbG0T219BD-18" value="" style="verticalLabelPosition=bottom;sketch=0;aspect=fixed;html=1;verticalAlign=top;strokeColor=none;align=center;outlineConnect=0;shape=mxgraph.citrix.netscaler_vpx;" vertex="1" parent="1">
          <mxGeometry x="1297" y="309" width="97" height="36" as="geometry" />
        </mxCell>
        <mxCell id="FzbhmMPE28zbG0T219BD-19" value="Microtic 192.168.0.244" style="text;html=1;strokeColor=none;fillColor=none;align=center;verticalAlign=middle;whiteSpace=wrap;rounded=0;" vertex="1" parent="1">
          <mxGeometry x="1316" y="274" width="60" height="30" as="geometry" />
        </mxCell>
        <mxCell id="FzbhmMPE28zbG0T219BD-24" value="" style="edgeStyle=orthogonalEdgeStyle;rounded=0;orthogonalLoop=1;jettySize=auto;html=1;" edge="1" parent="1" source="FzbhmMPE28zbG0T219BD-21" target="7d933b09d9755ecc-5">
          <mxGeometry relative="1" as="geometry" />
        </mxCell>
        <mxCell id="FzbhmMPE28zbG0T219BD-26" value="" style="edgeStyle=orthogonalEdgeStyle;rounded=0;orthogonalLoop=1;jettySize=auto;html=1;" edge="1" parent="1" source="FzbhmMPE28zbG0T219BD-21" target="7d933b09d9755ecc-5">
          <mxGeometry relative="1" as="geometry" />
        </mxCell>
        <mxCell id="FzbhmMPE28zbG0T219BD-25" value="Сервер Агроивнвест 192.168.0.200" style="swimlane;" vertex="1" parent="1">
          <mxGeometry x="1097" y="530" width="200" height="203" as="geometry" />
        </mxCell>
        <mxCell id="FzbhmMPE28zbG0T219BD-21" value="сервер агроинвест&lt;br&gt;(контроллер домена, архивы, базы 1с агроинвест Бух зуп&lt;br&gt;Нурлат головей&lt;br&gt;Закамье&lt;br&gt;ГК Агроинвест&lt;br&gt;мюд&lt;br&gt;рассвет&lt;br&gt;продагро" style="text;html=1;strokeColor=none;fillColor=none;align=center;verticalAlign=middle;whiteSpace=wrap;rounded=0;" vertex="1" parent="FzbhmMPE28zbG0T219BD-25">
          <mxGeometry x="13" y="72.5" width="97" height="30" as="geometry" />
        </mxCell>
        <mxCell id="FzbhmMPE28zbG0T219BD-28" value="домен agroinvrst.corp" style="text;html=1;strokeColor=none;fillColor=none;align=center;verticalAlign=middle;whiteSpace=wrap;rounded=0;" vertex="1" parent="1">
          <mxGeometry x="1315" y="416" width="60" height="30" as="geometry" />
        </mxCell>
        <mxCell id="FzbhmMPE28zbG0T219BD-31" value="RDP &lt;br&gt;178.205.142.4" style="text;html=1;strokeColor=none;fillColor=none;align=center;verticalAlign=middle;whiteSpace=wrap;rounded=0;" vertex="1" parent="1">
          <mxGeometry x="1720" y="378" width="140" height="30" as="geometry" />
        </mxCell>
        <mxCell id="FzbhmMPE28zbG0T219BD-32" value="RDP &lt;br&gt;178.205.143.115" style="text;html=1;strokeColor=none;fillColor=none;align=center;verticalAlign=middle;whiteSpace=wrap;rounded=0;" vertex="1" parent="1">
          <mxGeometry x="617" y="799.5" width="140" height="30" as="geometry" />
        </mxCell>
        <mxCell id="FzbhmMPE28zbG0T219BD-33" value="1с бух зуп&amp;nbsp;&lt;br&gt;пк зерно" style="text;html=1;strokeColor=none;fillColor=none;align=center;verticalAlign=middle;whiteSpace=wrap;rounded=0;" vertex="1" parent="1">
          <mxGeometry x="490" y="779" width="60" height="30" as="geometry" />
        </mxCell>
        <mxCell id="FzbhmMPE28zbG0T219BD-34" value="&lt;h1&gt;login SadminAgro&lt;/h1&gt;&lt;div&gt;pass P@2sw00rd&lt;/div&gt;" style="text;html=1;strokeColor=none;fillColor=none;spacing=5;spacingTop=-20;whiteSpace=wrap;overflow=hidden;rounded=0;" vertex="1" parent="1">
          <mxGeometry x="1800" y="480" width="300" height="120" as="geometry" />
        </mxCell>
      </root>
    </mxGraphModel>
  </diagram>
</mxfile>
